<?xml version="1.0" encoding="UTF-8" standalone="no"?><!-- Generator: Gravit.io --><svg xmlns="http://www.w3.org/2000/svg" xmlns:xlink="http://www.w3.org/1999/xlink" style="isolation:isolate" viewBox="0 0 30 80" width="30pt" height="80pt"><defs><clipPath id="_clipPath_5U8MLYMJ6det7Nq5QsvE56O7JofXZUS0"><rect width="30" height="80"/></clipPath></defs><g clip-path="url(#_clipPath_5U8MLYMJ6det7Nq5QsvE56O7JofXZUS0)"><g filter="url(#5XHt3x0tIN9hDyYO6eyhfCKX59ZeKOXz)"><g><path d=" M 14.521 3.564 L 14.623 3.569 L 14.521 3.574 L 14.521 3.564 Z " fill="rgb(0,0,0)"/><path d=" M 14.629 3.564 L 14.731 3.569 L 14.629 3.574 L 14.629 3.564 Z " fill="rgb(0,0,0)"/><path d=" M 14.736 3.564 Q 15.913 3.562 16.804 3.833 Q 18.84 4.425 20.094 5.768 Q 20.772 6.461 21.235 7.358 Q 21.964 8.611 22 10.528 Q 21.867 11.964 21.445 13.124 Q 21.05 14.397 20.579 15.597 Q 19.724 17.792 18.769 19.892 Q 16.895 23.824 14.833 27.821 Q 12.726 23.982 10.817 19.711 Q 9.828 17.551 8.97 15.266 Q 8.56 14.23 8.221 13.124 Q 8.045 12.581 7.904 12.004 Q 7.684 11.269 7.667 10.342 Q 7.757 8.343 8.593 7.059 Q 9.151 6.113 9.955 5.402 Q 11.109 4.335 12.852 3.833 Q 13.677 3.586 14.736 3.564 Z " fill="rgb(0,150,136)"/><path d=" M 14.941 3.564 L 15.043 3.569 L 14.941 3.574 L 14.941 3.564 Z " fill="rgb(0,0,0)"/><path d=" M 15.049 3.564 L 15.151 3.569 L 15.049 3.574 L 15.049 3.564 Z " fill="rgb(0,0,0)"/><line x1="10.009" y1="5.35" x2="9.966" y2="5.402"/><path d=" M 19.798 5.474 L 19.862 5.546 L 19.798 5.474 Z  M 9.858 5.484 L 9.794 5.557 L 9.858 5.484 Z " fill-rule="evenodd" fill="rgb(0,0,0)"/><line x1="19.873" y1="5.546" x2="19.927" y2="5.608"/><path d=" M 9.74 5.598 L 9.675 5.67 L 9.74 5.598 Z  M 19.938 5.608 L 20.002 5.681 L 19.938 5.608 Z " fill-rule="evenodd" fill="rgb(0,0,0)"/><line x1="9.589" y1="5.753" x2="9.535" y2="5.815"/><path d=" M 14.693 7.384 L 14.806 7.389 L 14.693 7.394 L 14.693 7.384 Z " fill="rgb(0,0,0)"/><path d=" M 14.693 7.384 L 14.806 7.389 L 14.693 7.394 L 14.693 7.384 Z  M 14.866 7.384 L 14.979 7.389 L 14.866 7.394 L 14.866 7.384 Z  M 7.672 10.13 L 7.677 10.228 L 7.667 10.228 L 7.672 10.13 Z  M 21.995 10.13 L 22 10.228 L 21.989 10.228 L 21.995 10.13 Z " fill-rule="evenodd" fill="rgb(0,0,0)"/><path d=" M 7.672 10.233 L 7.677 10.332 L 7.667 10.332 L 7.672 10.233 Z  M 21.995 10.233 L 22 10.332 L 21.989 10.332 L 21.995 10.233 Z " fill-rule="evenodd" fill="rgb(0,0,0)"/><path d=" M 11.657 10.285 L 11.662 10.383 L 11.651 10.383 L 11.657 10.285 Z  M 18.01 10.285 L 18.016 10.383 L 18.005 10.383 L 18.01 10.285 Z  M 11.657 10.481 L 11.662 10.579 L 11.651 10.579 L 11.657 10.481 Z  M 18.01 10.481 L 18.016 10.579 L 18.005 10.579 L 18.01 10.481 Z " fill-rule="evenodd" fill="rgb(0,0,0)"/><path d=" M 7.672 10.533 L 7.677 10.621 L 7.667 10.621 L 7.672 10.533 Z  M 21.995 10.533 L 22 10.621 L 21.989 10.621 L 21.995 10.533 Z " fill-rule="evenodd" fill="rgb(0,0,0)"/><path d=" M 14.672 13.475 L 14.763 13.48 L 14.672 13.486 L 14.672 13.475 Z  M 14.909 13.475 L 15 13.48 L 14.909 13.486 L 14.909 13.475 Z " fill-rule="evenodd" fill="rgb(0,0,0)"/></g><ellipse vector-effect="non-scaling-stroke" cx="14.636073063388277" cy="10.40472527472568" rx="3.816579693442783" ry="3.658937728937717" fill="rgb(235,235,235)"/><path d=" M 13.907 12.045 L 13.221 12.045 L 13.221 8.239 L 15.716 8.239 L 15.716 8.795 L 13.907 8.795 L 13.907 9.832 L 15.608 9.832 L 15.608 10.388 L 13.907 10.388 L 13.907 12.045 Z " fill="rgb(0,150,136)"/></g><defs><filter id="5XHt3x0tIN9hDyYO6eyhfCKX59ZeKOXz" x="-200%" y="-200%" width="400%" height="400%" filterUnits="objectBoundingBox" color-interpolation-filters="sRGB"><feGaussianBlur xmlns="http://www.w3.org/2000/svg" stdDeviation="0"/></filter></defs></g></svg>